<svg aria-hidden="true" style="width:0;height:0;position:absolute;overflow:hidden" xmlns="http://www.w3.org/2000/svg"><defs><symbol id="icon-search" viewBox="0 0 20 20"><path d="M12.9 14.32a7.947 7.947 0 0 1-4.908 1.682 8 8 0 1 1 6.305-3.075l.013-.018 5.35 5.33-1.42 1.42-5.33-5.34zM8 14A6 6 0 1 0 8 2a6 6 0 1 0 0 12z"/></symbol><symbol id="icon-refresh" viewBox="0 0 32 32"><path d="M23.5 18a8 8 0 0 1-16 0c0-4.085 3.917-6.595 8-6.951V16l10-7V8l-10-8v5.042c-7.347.432-14 5.561-14 12.958 0 7.732 6.268 14 14 14s14-6.268 14-14h-6z"/></symbol></defs></svg>