<svg aria-hidden="true" style="position: absolute; width: 0; height: 0; overflow: hidden;" version="1.1" xmlns="http://www.w3.org/2000/svg" xmlns:xlink="http://www.w3.org/1999/xlink">
<defs>
<symbol id="icon-search" viewBox="0 0 20 20">
<path d="M12.9 14.32c-1.34 1.049-3.050 1.682-4.908 1.682-4.418 0-8-3.582-8-8s3.582-8 8-8c4.418 0 8 3.582 8 8 0 1.858-0.633 3.567-1.695 4.925l0.013-0.018 5.35 5.33-1.42 1.42-5.33-5.34zM8 14c3.314 0 6-2.686 6-6s-2.686-6-6-6v0c-3.314 0-6 2.686-6 6s2.686 6 6 6v0z"></path>
</symbol>
<symbol id="icon-refresh" viewBox="0 0 32 32">
<path d="M23.5 18c0 4.418-3.582 8-8 8s-8-3.582-8-8c0-4.085 3.917-6.595 8-6.951v4.951l10-7v-1l-10-8v5.042c-7.347 0.432-14 5.561-14 12.958 0 7.732 6.268 14 14 14s14-6.268 14-14h-6z"></path>
</symbol>
</defs>
</svg>